<svg width="32" height="32" viewBox="0 0 32 32" fill="none" xmlns="http://www.w3.org/2000/svg">
<rect x="2" y="2" width="28" height="28" rx="14" stroke="white" stroke-width="4"/>
<path d="M4.68629 27.3137C2.44865 25.0761 0.9248 22.2251 0.307437 19.1214C-0.309927 16.0177 0.00692726 12.8007 1.21793 9.87706C2.42893 6.95344 4.47969 4.45459 7.11088 2.69648C9.74207 0.938381 12.8355 -1.67541e-06 16 -1.39876e-06C19.1645 -1.12211e-06 22.2579 0.938384 24.8891 2.69649C27.5203 4.45459 29.5711 6.95345 30.7821 9.87707C31.9931 12.8007 32.3099 16.0178 31.6926 19.1214C31.0752 22.2251 29.5513 25.0761 27.3137 27.3137L24.4709 24.4709C26.1463 22.7955 27.2872 20.6609 27.7495 18.3371C28.2117 16.0133 27.9745 13.6046 27.0678 11.4156C26.161 9.22659 24.6256 7.35563 22.6555 6.03929C20.6855 4.72295 18.3694 4.02035 16 4.02035C13.6307 4.02035 11.3145 4.72294 9.34447 6.03929C7.37442 7.35562 5.83896 9.22659 4.93225 11.4156C4.02554 13.6046 3.7883 16.0133 4.25054 18.3371C4.71278 20.6609 5.85373 22.7955 7.52911 24.4709L4.68629 27.3137Z" fill="url(#paint0_linear_528_2346)"/>
<defs>
<linearGradient id="paint0_linear_528_2346" x1="21" y1="29.5" x2="7.5" y2="26.5" gradientUnits="userSpaceOnUse">
<stop stop-color="white"/>
<stop offset="1" stop-color="#FFD700"/>
</linearGradient>
</defs>
</svg>
