<svg width="132" height="132" viewBox="0 0 132 132" fill="none" xmlns="http://www.w3.org/2000/svg">
<path id="Star 2" d="M61.7901 2.57043C63.7572 -0.499599 68.2428 -0.499599 70.2099 2.57043L76.7668 12.8036C78.16 14.9781 80.9801 15.7337 83.2739 14.5472L94.0689 8.96341C97.3074 7.28823 101.192 9.53109 101.361 13.1734L101.922 25.314C102.042 27.8937 104.106 29.9581 106.686 30.0775L118.827 30.6393C122.469 30.8078 124.712 34.6926 123.037 37.9311L117.453 48.7261C116.266 51.0199 117.022 53.84 119.196 55.2332L129.43 61.7901C132.5 63.7572 132.5 68.2428 129.43 70.2099L119.196 76.7668C117.022 78.16 116.266 80.9801 117.453 83.2739L123.037 94.0689C124.712 97.3074 122.469 101.192 118.827 101.361L106.686 101.922C104.106 102.042 102.042 104.106 101.922 106.686L101.361 118.827C101.192 122.469 97.3074 124.712 94.0689 123.037L83.2739 117.453C80.9801 116.266 78.16 117.022 76.7668 119.196L70.2099 129.43C68.2428 132.5 63.7572 132.5 61.7901 129.43L55.2332 119.196C53.84 117.022 51.0199 116.266 48.7261 117.453L37.9311 123.037C34.6926 124.712 30.8078 122.469 30.6393 118.827L30.0775 106.686C29.9581 104.106 27.8937 102.042 25.314 101.922L13.1733 101.361C9.53108 101.192 7.28823 97.3074 8.96341 94.0689L14.5472 83.2739C15.7337 80.9801 14.9781 78.16 12.8036 76.7668L2.57043 70.2099C-0.499599 68.2428 -0.499599 63.7572 2.57043 61.7901L12.8036 55.2332C14.9781 53.84 15.7337 51.0199 14.5472 48.7261L8.96341 37.9311C7.28823 34.6926 9.53109 30.8078 13.1734 30.6393L25.314 30.0775C27.8937 29.9581 29.9581 27.8937 30.0775 25.314L30.6393 13.1733C30.8078 9.53108 34.6926 7.28823 37.9311 8.96341L48.7261 14.5472C51.0199 15.7337 53.84 14.9781 55.2332 12.8036L61.7901 2.57043Z" fill="#CCCCCC"/>
</svg>
